REM DIRINDEX 1\2\4,1\2\5,1\2\6,1\3\7,1\3\8,1\3\9,1\3\10
REM DIRNAME cjc057,folder01,folder02,folder03,folder04,folder05,folder06,folder07,folder08,folder09
TITLE ""
FILE "a_171.mp3" MP3
  TRACK 01 AUDIO
    TITLE "0:"
    INDEX 01 00:00:00
  TRACK 02 AUDIO
    TITLE "4:cjc057_03611"
    INDEX 01 00:00:13
  TRACK 03 AUDIO
    TITLE "0:"
    INDEX 01 00:01:19
  TRACK 04 AUDIO
    TITLE "5:cjc057_03612"
    INDEX 01 00:01:56
  TRACK 05 AUDIO
    TITLE "0:"
    INDEX 01 00:04:40
  TRACK 06 AUDIO
    TITLE "4:cjc057_03613"
    INDEX 01 00:05:50
  TRACK 07 AUDIO
    TITLE "0:"
    INDEX 01 00:06:63
  TRACK 08 AUDIO
    TITLE "5:cjc057_03614"
    INDEX 01 00:07:23
  TRACK 09 AUDIO
    TITLE "0:"
    INDEX 01 00:09:30
  TRACK 10 AUDIO
    TITLE "4:cjc057_03615"
    INDEX 01 00:10:41
  TRACK 11 AUDIO
    TITLE "0:"
    INDEX 01 00:11:56
  TRACK 12 AUDIO
    TITLE "5:cjc057_03616"
    INDEX 01 00:12:14
  TRACK 13 AUDIO
    TITLE "0:"
    INDEX 01 00:14:41
  TRACK 14 AUDIO
    TITLE "4:cjc057_03617"
    INDEX 01 00:15:50
  TRACK 15 AUDIO
    TITLE "0:"
    INDEX 01 00:17:00
  TRACK 16 AUDIO
    TITLE "5:cjc057_03618"
    INDEX 01 00:17:35
  TRACK 17 AUDIO
    TITLE "0:"
    INDEX 01 00:19:03
  TRACK 18 AUDIO
    TITLE "4:cjc057_03619"
    INDEX 01 00:20:12
  TRACK 19 AUDIO
    TITLE "0:"
    INDEX 01 00:21:33
  TRACK 20 AUDIO
    TITLE "5:cjc057_03620"
    INDEX 01 00:21:68
  TRACK 21 AUDIO
    TITLE "0:"
    INDEX 01 00:23:24
  TRACK 22 AUDIO
    TITLE "4:cjc057_03621"
    INDEX 01 00:24:35
  TRACK 23 AUDIO
    TITLE "0:"
    INDEX 01 00:25:33
  TRACK 24 AUDIO
    TITLE "5:cjc057_03622"
    INDEX 01 00:25:66
  TRACK 25 AUDIO
    TITLE "0:"
    INDEX 01 00:28:04
  TRACK 26 AUDIO
    TITLE "4:cjc057_03623"
    INDEX 01 00:29:11
  TRACK 27 AUDIO
    TITLE "0:"
    INDEX 01 00:30:22
  TRACK 28 AUDIO
    TITLE "5:cjc057_03624"
    INDEX 01 00:30:55
  TRACK 29 AUDIO
    TITLE "0:"
    INDEX 01 00:32:68
  TRACK 30 AUDIO
    TITLE "4:cjc057_03625"
    INDEX 01 00:34:04
  TRACK 31 AUDIO
    TITLE "0:"
    INDEX 01 00:35:17
  TRACK 32 AUDIO
    TITLE "5:cjc057_03626"
    INDEX 01 00:35:53
  TRACK 33 AUDIO
    TITLE "0:"
    INDEX 01 00:37:67
  TRACK 34 AUDIO
    TITLE "4:cjc057_03627"
    INDEX 01 00:39:02
  TRACK 35 AUDIO
    TITLE "0:"
    INDEX 01 00:40:56
  TRACK 36 AUDIO
    TITLE "5:cjc057_03628"
    INDEX 01 00:41:16
  TRACK 37 AUDIO
    TITLE "0:"
    INDEX 01 00:42:27
  TRACK 38 AUDIO
    TITLE "4:cjc057_03629"
    INDEX 01 00:43:37
  TRACK 39 AUDIO
    TITLE "0:"
    INDEX 01 00:44:40
  TRACK 40 AUDIO
    TITLE "5:cjc057_03630"
    INDEX 01 00:45:00
  TRACK 41 AUDIO
    TITLE "0:"
    INDEX 01 00:47:28
  TRACK 42 AUDIO
    TITLE "4:cjc057_03631"
    INDEX 01 00:48:40
  TRACK 43 AUDIO
    TITLE "0:"
    INDEX 01 00:49:51
  TRACK 44 AUDIO
    TITLE "5:cjc057_03632"
    INDEX 01 00:50:11
  TRACK 45 AUDIO
    TITLE "0:"
    INDEX 01 00:51:34
  TRACK 46 AUDIO
    TITLE "4:cjc057_03633"
    INDEX 01 00:52:45
  TRACK 47 AUDIO
    TITLE "0:"
    INDEX 01 00:53:47
  TRACK 48 AUDIO
    TITLE "5:cjc057_03634"
    INDEX 01 00:54:07
  TRACK 49 AUDIO
    TITLE "0:"
    INDEX 01 00:55:20
  TRACK 50 AUDIO
    TITLE "4:cjc057_03635"
    INDEX 01 00:56:29
  TRACK 51 AUDIO
    TITLE "0:"
    INDEX 01 00:57:50
  TRACK 52 AUDIO
    TITLE "5:cjc057_03636"
    INDEX 01 00:58:09
  TRACK 53 AUDIO
    TITLE "0:"
    INDEX 01 00:59:51
  TRACK 54 AUDIO
    TITLE "4:cjc057_03637"
    INDEX 01 01:00:60
  TRACK 55 AUDIO
    TITLE "0:"
    INDEX 01 01:01:70
  TRACK 56 AUDIO
    TITLE "5:cjc057_03638"
    INDEX 01 01:02:30
  TRACK 57 AUDIO
    TITLE "0:"
    INDEX 01 01:04:00
  TRACK 58 AUDIO
    TITLE "4:cjc057_03639"
    INDEX 01 01:05:09
  TRACK 59 AUDIO
    TITLE "0:"
    INDEX 01 01:06:28
  TRACK 60 AUDIO
    TITLE "5:cjc057_03640"
    INDEX 01 01:06:63
  TRACK 61 AUDIO
    TITLE "0:"
    INDEX 01 01:09:16
  TRACK 62 AUDIO
    TITLE "4:cjc057_03641"
    INDEX 01 01:10:26
  TRACK 63 AUDIO
    TITLE "0:"
    INDEX 01 01:11:33
  TRACK 64 AUDIO
    TITLE "5:cjc057_03642"
    INDEX 01 01:11:68
  TRACK 65 AUDIO
    TITLE "0:"
    INDEX 01 01:15:11
  TRACK 66 AUDIO
    TITLE "4:cjc057_03643"
    INDEX 01 01:16:18
  TRACK 67 AUDIO
    TITLE "0:"
    INDEX 01 01:17:26
  TRACK 68 AUDIO
    TITLE "5:cjc057_03644"
    INDEX 01 01:17:63
  TRACK 69 AUDIO
    TITLE "0:"
    INDEX 01 01:20:22
  TRACK 70 AUDIO
    TITLE "4:cjc057_03645"
    INDEX 01 01:21:33
  TRACK 71 AUDIO
    TITLE "0:"
    INDEX 01 01:23:03
  TRACK 72 AUDIO
    TITLE "5:cjc057_03646"
    INDEX 01 01:23:38
  TRACK 73 AUDIO
    TITLE "0:"
    INDEX 01 01:26:23
  TRACK 74 AUDIO
    TITLE "4:cjc057_03647"
    INDEX 01 01:27:32
  TRACK 75 AUDIO
    TITLE "0:"
    INDEX 01 01:28:33
  TRACK 76 AUDIO
    TITLE "5:cjc057_03648"
    INDEX 01 01:28:69
  TRACK 77 AUDIO
    TITLE "0:"
    INDEX 01 01:33:50
